<?xml version="1.0" standalone="no"?>
<!DOCTYPE svg PUBLIC "-//W3C//DTD SVG 20010904//EN"
 "http://www.w3.org/TR/2001/REC-SVG-20010904/DTD/svg10.dtd">
<svg version="1.0" xmlns="http://www.w3.org/2000/svg"
 width="24.000000pt" height="24.000000pt" viewBox="0 0 24.000000 24.000000"
 preserveAspectRatio="xMidYMid meet">

<g transform="translate(0.000000,24.000000) scale(0.100000,-0.100000)"
fill="#000000" stroke="none">
<path d="M63 220 c-34 -21 -63 -66 -63 -100 0 -54 65 -120 118 -120 57 0 122
64 122 120 0 56 -65 120 -122 120 -13 0 -37 -9 -55 -20z m121 -21 c31 -25 46
-74 33 -111 l-9 -28 -28 23 c-22 17 -25 26 -18 41 17 31 -6 66 -42 66 -36 0
-59 -35 -42 -66 7 -15 4 -24 -18 -41 l-28 -23 -9 28 c-32 92 83 172 161 111z
m-39 -54 c0 -25 -4 -30 -25 -30 -16 0 -26 6 -28 18 -6 30 6 49 30 45 18 -2 23
-9 23 -33z m29 -75 c29 -29 6 -50 -54 -50 -56 0 -81 20 -59 46 30 37 77 38
113 4z"/>
</g>
</svg>
